<?xml version="1.0" encoding="iso-8859-1"?>
<!-- Generator: Adobe Illustrator 19.0.0, SVG Export Plug-In . SVG Version: 6.00 Build 0)  -->
<svg version="1.1" id="Capa_1" xmlns="http://www.w3.org/2000/svg" xmlns:xlink="http://www.w3.org/1999/xlink" x="0px" y="0px"
	 viewBox="0 0 480.036 480.036" style="enable-background:new 0 0 480.036 480.036;" xml:space="preserve">
<g>
	<g>
		<g>
			<path d="M479.763,224.168c-3.319-47.766-36.687-88.115-82.98-100.342c-15.52-68.918-83.97-112.206-152.888-96.687
				c-34.873,7.853-64.869,29.94-82.72,60.911h-1.192c-50.189,0.119-93.16,36.004-102.224,85.368
				C20.269,187.297-3.255,224.59,0.366,264.402c5.256,45.661,44.095,80.011,90.056,79.648h13.56v64h-8c-4.418,0-8,3.582-8,8v24
				c0,8.837,7.163,16,16,16h272c8.837,0,16-7.163,16-16v-24c0-4.418-3.582-8-8-8h-8v-64.6
				C437.579,339.169,484.043,285.765,479.763,224.168z M375.982,440.05h-272v-16h112c0,4.418,3.582,8,8,8h32c4.418,0,8-3.582,8-8
				h112V440.05z M351.982,248.05h-8v16h8c4.418,0,8,3.582,8,8v136h-240v-136c0-4.418,3.582-8,8-8h8v-16h-8
				c-13.255,0-24,10.745-24,24v56h-13.6c-37.7,0.397-69.641-27.68-74.08-65.12c-3.131-34.129,18.109-65.775,50.88-75.808
				c3.003-0.915,5.193-3.503,5.6-6.616c5.844-43.713,43.099-76.377,87.2-76.456c1.248,0,2.48,0.088,3.712,0.168l1.6,0.104
				c3.133,0.182,6.083-1.486,7.544-4.264c28.672-54.759,96.307-75.907,151.066-47.235c30.526,15.984,51.988,45.138,58.182,79.035
				c0.575,3.189,3.017,5.716,6.184,6.4c47.579,10.359,79.907,54.647,75.272,103.12c-5.042,45.84-41.639,81.805-87.56,86.048V272.05
				C375.982,258.795,365.237,248.05,351.982,248.05z"/>
			<rect x="231.982" y="344.05" width="16" height="16"/>
			<rect x="279.982" y="344.05" width="16" height="16"/>
			<rect x="183.982" y="344.05" width="16" height="16"/>
			<path d="M247.374,243.114c1.239-2.99,0.553-6.432-1.736-8.72l-40-40c-3.124-3.123-8.188-3.123-11.312,0l-40,40
				c-3.124,3.125-3.123,8.19,0.002,11.314c1.5,1.499,3.534,2.342,5.654,2.342h16v80h16v-88c0-4.418-3.582-8-8-8h-4.688
				l20.688-20.688l20.688,20.688h-4.688c-4.418,0-8,3.582-8,8v88h16v-80h16C243.218,248.05,246.135,246.102,247.374,243.114z"/>
			<path d="M319.982,272.05h-16v-80h-16v88c0,4.418,3.582,8,8,8h4.688l-20.688,20.688l-20.688-20.688h4.688c4.418,0,8-3.582,8-8v-88
				h-16v80h-16c-4.418,0.001-7.999,3.583-7.998,8.002c0,2.121,0.843,4.154,2.342,5.654l40,40c3.124,3.123,8.188,3.123,11.312,0
				l40-40c3.124-3.125,3.123-8.19-0.002-11.314C324.137,272.893,322.103,272.05,319.982,272.05z"/>
		</g>
	</g>
</g>
<g>
</g>
<g>
</g>
<g>
</g>
<g>
</g>
<g>
</g>
<g>
</g>
<g>
</g>
<g>
</g>
<g>
</g>
<g>
</g>
<g>
</g>
<g>
</g>
<g>
</g>
<g>
</g>
<g>
</g>
</svg>
