<svg height="512pt" viewBox="-2 0 511 512" width="512pt" xmlns="http://www.w3.org/2000/svg"><path d="m247.585938 76.042969v-40.050781c0-4.199219-3.402344-7.605469-7.601563-7.605469h-177.472656c-4.203125 0-7.605469 3.40625-7.605469 7.605469v40.050781c0 4.199219 3.402344 7.605469 7.605469 7.605469h177.472656c4.199219 0 7.601563-3.40625 7.601563-7.605469zm-15.207032-7.601563h-162.265625v-24.84375h162.265625zm0 0"/><path d="m345.621094 362.082031h-289.65625c-3.449219 0-6.46875 2.324219-7.351563 5.65625l-10.964843 41.359375c-.605469 2.28125-.113282 4.714844 1.324218 6.585938 1.441406 1.875 3.667969 2.96875 6.027344 2.96875h311.585938c2.359374 0 4.585937-1.097656 6.027343-2.96875 1.4375-1.867188 1.925781-4.300782 1.324219-6.585938l-10.964844-41.359375c-.886718-3.335937-3.902344-5.65625-7.351562-5.65625zm-290.738282 41.363281 6.929688-26.152343h277.957031l6.933594 26.152343zm0 0"/><path d="m219.347656 263.816406h-142.695312c-4.199219 0-7.601563 3.40625-7.601563 7.605469v41.617187c0 4.199219 3.402344 7.605469 7.601563 7.605469h142.695312c4.199219 0 7.601563-3.40625 7.601563-7.605469v-41.617187c0-4.199219-3.402344-7.605469-7.601563-7.605469zm-7.605468 41.621094h-127.484376v-26.414062h127.484376zm0 0"/><path d="m471.082031 48.988281h-10.082031c-4.199219 0-7.605469 3.40625-7.605469 7.605469s3.40625 7.601562 7.605469 7.601562h10.082031c11.210938 0 20.332031 9.121094 20.332031 20.332032v34.101562h-158.152343v-34.101562c0-11.210938 9.121093-20.332032 20.332031-20.332032h76.988281c4.203125 0 7.605469-3.402343 7.605469-7.601562s-3.402344-7.605469-7.605469-7.605469h-76.988281c-19.59375 0-35.539062 15.945313-35.539062 35.539063v151.03125h-133.441407v-123.523438h63.886719c15.148438 0 27.476562-12.324218 27.476562-27.472656v-57.085938c0-15.152343-12.324218-27.476562-27.476562-27.476562h-194.507812c-15.148438 0-27.476563 12.324219-27.476563 27.476562v57.085938c0 15.148438 12.328125 27.476562 27.476563 27.476562h63.886718v123.523438h-57.050781c-18.914063 0-34.308594 15.390625-34.308594 34.308594v70.421875l-25.765625 97.195312c-.003906.011719 0 .03125-.003906.046875-.15625.609375-.25 1.242188-.25 1.902344v64.957031c0 4.199219 3.402344 7.605469 7.605469 7.605469h28.503906c4.199219 0 7.605469-3.40625 7.605469-7.605469s-3.40625-7.601562-7.605469-7.601562h-20.902344v-49.753907h370.167969v49.753907h-318.847656c-4.199219 0-7.601563 3.402343-7.601563 7.601562s3.402344 7.605469 7.601563 7.605469h326.453125c4.199219 0 7.601562-3.40625 7.601562-7.605469v-64.957031c0-.660156-.089843-1.292969-.246093-1.902344-.003907-.015625 0-.035156-.003907-.046875l-25.765625-97.191406v-49.894531h96.015625c19.597657 0 35.539063-15.941406 35.539063-35.539063v-170.335937c0-19.59375-15.941406-35.539063-35.539063-35.539063zm-429.355469 35.574219v-57.085938c0-6.765624 5.503907-12.269531 12.265626-12.269531h194.507812c6.765625 0 12.269531 5.503907 12.269531 12.269531v57.085938c0 6.765625-5.503906 12.265625-12.269531 12.265625h-194.507812c-6.765626 0-12.265626-5.503906-12.265626-12.265625zm127.679688 27.472656v123.523438h-36.320312v-123.523438zm198.125 163.160156c-.023438 0-.046875-.003906-.070312-.003906-.023438 0-.042969.003906-.066407.003906h-13.800781c-11.210938 0-20.332031-9.121093-20.332031-20.332031v-11.660156c0-.011719.003906-.027344.003906-.039063 0-.015624-.003906-.027343-.003906-.039062v-4.910156h40.753906v36.980468zm-34.269531-52.1875v-36.980468h40.753906v36.980468zm55.960937-36.984374h46.230469v36.984374h-46.230469zm61.4375 0h40.753906v36.984374h-40.753906zm40.753906-15.207032h-40.753906v-36.980468h40.753906zm-55.960937-36.980468v36.980468h-46.230469v-36.980468zm-61.4375 0v36.980468h-40.753906v-36.980468zm-356.03125 297.996093 21.988281-82.929687h321.640625l21.984375 82.929687zm341.875-98.140625h-318.128906v-63.824218c0-10.53125 8.566406-19.101563 19.097656-19.101563h257.226563v4.097656c0 19.597657 15.941406 35.539063 35.539062 35.539063h6.265625zm29.363281-58.496094v-36.980468h46.230469v36.980468zm81.859375 0h-20.421875v-36.980468h40.753906v16.648437c0 11.210938-9.121093 20.332031-20.332031 20.332031zm0 0"/><path d="m433.992188 102.453125c0 4.199219 3.402343 7.601563 7.605468 7.601563h31.707032c4.203124 0 7.605468-3.402344 7.605468-7.601563s-3.402344-7.605469-7.605468-7.605469h-31.707032c-4.203125 0-7.605468 3.402344-7.605468 7.605469zm0 0"/></svg>