<?xml version="1.0"?>
<svg xmlns="http://www.w3.org/2000/svg" id="Outline" viewBox="0 0 512 512" width="512" height="512"><path d="M67.562,478.656l24,16a8,8,0,0,0,8.876,0L120,481.615l19.562,13.041a8,8,0,0,0,8.876,0L168,481.615l19.562,13.041a8,8,0,0,0,8.876,0L216,481.615l19.562,13.041a8,8,0,0,0,8.876,0L264,481.615l19.562,13.041a8,8,0,0,0,8.876,0l24-16A8,8,0,0,0,320,472V336h88a40.045,40.045,0,0,0,40-40V200a8,8,0,0,0-3.562-6.656l-24-16a8,8,0,0,0-8.876,0L393.02,189.706l-9.02-9.02V56a40.045,40.045,0,0,0-40-40H104A40.045,40.045,0,0,0,64,56V472A8,8,0,0,0,67.562,478.656Zm328.876-272L416,193.615l16,10.666V296a24,24,0,0,1-48,0V203.313l2.343,2.344A8,8,0,0,0,396.438,206.656ZM368,56V296a39.788,39.788,0,0,0,8.022,24H320V56a24,24,0,0,1,48,0ZM80,424V56a24.028,24.028,0,0,1,24-24H312.022A39.788,39.788,0,0,0,304,56V467.719l-16,10.666-19.562-13.041a8,8,0,0,0-8.876,0L240,478.385l-19.562-13.041a8,8,0,0,0-8.876,0L192,478.385l-19.562-13.041a8,8,0,0,0-8.876,0L144,478.385l-19.562-13.041a8,8,0,0,0-8.876,0L96,478.385,80,467.719Z"/><path d="M272,272H112a8,8,0,0,0-8,8v64a8,8,0,0,0,8,8H272a8,8,0,0,0,8-8V280A8,8,0,0,0,272,272Zm-88,16h16v48H184Zm-16,48H152V288h16Zm48-48h16v48H216Zm-96,0h16v48H120Zm144,48H248V288h16Z"/><path d="M88,432h16a8,8,0,0,0,0-16H88a8,8,0,0,0,0,16Z"/><path d="M152,416H136a8,8,0,0,0,0,16h16a8,8,0,0,0,0-16Z"/><path d="M200,416H184a8,8,0,0,0,0,16h16a8,8,0,0,0,0-16Z"/><path d="M248,416H232a8,8,0,0,0,0,16h16a8,8,0,0,0,0-16Z"/><path d="M296,416H280a8,8,0,0,0,0,16h16a8,8,0,0,0,0-16Z"/><path d="M272,384a8,8,0,0,0,0-16H112a8,8,0,0,0,0,16Z"/><path d="M104,64h96a8,8,0,0,0,0-16H104a8,8,0,0,0,0,16Z"/><path d="M264,64h16a8,8,0,0,0,0-16H264a8,8,0,0,0,0,16Z"/><path d="M104,96h96a8,8,0,0,0,0-16H104a8,8,0,0,0,0,16Z"/><path d="M264,96h16a8,8,0,0,0,0-16H264a8,8,0,0,0,0,16Z"/><path d="M104,128h96a8,8,0,0,0,0-16H104a8,8,0,0,0,0,16Z"/><path d="M264,128h16a8,8,0,0,0,0-16H264a8,8,0,0,0,0,16Z"/><path d="M104,160h96a8,8,0,0,0,0-16H104a8,8,0,0,0,0,16Z"/><path d="M264,160h16a8,8,0,0,0,0-16H264a8,8,0,0,0,0,16Z"/><path d="M104,192h96a8,8,0,0,0,0-16H104a8,8,0,0,0,0,16Z"/><path d="M264,192h16a8,8,0,0,0,0-16H264a8,8,0,0,0,0,16Z"/><path d="M200,224a8,8,0,0,0,0-16H104a8,8,0,0,0,0,16Z"/><path d="M128,248a8,8,0,0,0,8,8h96a8,8,0,0,0,0-16H136A8,8,0,0,0,128,248Z"/><path d="M264,224h16a8,8,0,0,0,0-16H264a8,8,0,0,0,0,16Z"/></svg>
