<?xml version="1.0" encoding="UTF-8"?>
<!DOCTYPE svg PUBLIC "-//W3C//DTD SVG 1.1//EN" "http://www.w3.org/Graphics/SVG/1.1/DTD/svg11.dtd">
<!-- Creator: CorelDRAW 2018 (64-Bit) -->
<svg xmlns="http://www.w3.org/2000/svg" xml:space="preserve" width="2856px" height="882px" version="1.1" style="shape-rendering:geometricPrecision; text-rendering:geometricPrecision; image-rendering:optimizeQuality; fill-rule:evenodd; clip-rule:evenodd"
viewBox="0 0 2856 882.49"
 xmlns:xlink="http://www.w3.org/1999/xlink">
 <defs>
  <style type="text/css">
   <![CDATA[
    .fil1 {fill:#FFFFFF}
    .fil0 {fill:#FFFFFF;fill-rule:nonzero}
   ]]>
  </style>
 </defs>
 <g id="Слой_x0020_1">
  <metadata id="CorelCorpID_0Corel-Layer"/>
  <path class="fil0" d="M1987.98 668.51c83.97,0 125.94,-38.24 125.94,-111.03 0,-42.4 0,-87.2 0,-129.6 0,-11.17 -2.94,-14.81 -14.02,-14.81 -41.98,0 -82.86,0 -124.84,0 -6.9,0 -7.94,2 -7.94,8.78 0,22.92 0,44.58 0,67.5 0,8.6 1.09,9.07 9.13,9.07 9.86,0 19.32,0 29.51,0 8.21,0 10.26,2.31 10.26,11.94l0 56.12c0,6.97 -3.46,9.7 -9.79,9.7l-95.77 0c-6.33,0 -9.78,-2.73 -9.78,-9.7l0 -250.47c0,-6.99 3.45,-9.7 9.78,-9.7 57.98,0 115.97,0 173.95,0 14.5,0 20.33,-7.62 20.33,-17.4 0,-20.93 0,-40.82 0,-62.54 0,-8.45 -3,-12.39 -12.44,-12.39l-170.63 0c-83.95,0 -125.94,38.13 -125.94,111.03l0 232.47c0,72.79 41.98,111.03 125.94,111.03l66.31 0z"/>
  <path class="fil0" d="M1172.45 656.65c0,-47.43 0,-94.83 0,-142.24 0,-6.2 1.87,-8.17 6.68,-8.17l62.49 0c8.46,0 9.06,3.58 11.92,11.22 15.46,47.34 30.93,94.67 46.38,142.01 1.37,4.13 2.92,5.51 9.22,5.51 28.98,0 57.97,0 86.95,0 6.32,0 7.18,-5.63 5.13,-11.47l-39.26 -111.61c-9.18,-25.16 -20.28,-40.53 -37.09,-50.32 41.27,-20.28 62.26,-59.39 62.26,-104.84l0 -53.79c0,-73.46 -45.45,-115.44 -129.42,-115.44l-172.77 0c-13.8,0 -16.01,8.41 -16.01,20.65 0,139.18 0,278.38 0,417.58 0,6.93 0.75,9.24 7.52,9.24 29.52,0 59.06,0 88.59,0 6.28,0 7.41,-1.85 7.41,-8.33zm99.94 -348.87c6.33,0 9.78,2.75 9.78,9.79l0 89.44c0,7.03 -3.47,9.78 -9.78,9.78 -31.23,0 -62.46,0 -93.68,0 -5.5,0 -6.26,-0.37 -6.26,-7.3 0,-32.01 0,-64.03 0,-96.06 0,-4.24 1,-5.65 4.77,-5.65l95.17 0z"/>
  <path class="fil1" d="M1479.75 217.51l58.27 0 30.04 0 154.8 0c5.57,0 10.13,4.56 10.13,10.13l0 70.62c0,5.57 -4.56,10.14 -10.13,10.14l-154.8 0 0 83.91 140.83 0c5.59,0 10.15,4.56 10.15,10.15l0 70.6c0,5.59 -4.56,10.15 -10.15,10.15l-140.83 0 0 90.89 158.25 0c5.58,0 10.14,4.57 10.14,10.14l0 70.6c0,5.58 -4.56,10.14 -10.14,10.14l-158.25 0 -30.04 0 -58.27 0c-8.37,0 -15.22,-6.84 -15.22,-15.2l0 -417.07c0,-8.36 6.85,-15.2 15.22,-15.2z"/>
  <path class="fil1" d="M2823.97 309.52l-5.55 0 -139.3 0 -14.67 0c-6.31,0 -9.78,2.75 -9.78,9.77l0 64.29c0,7.04 3.46,9.79 9.78,9.79l62.14 0c83.97,0 129.41,44.12 129.41,117.47l0 40.55c0,73.47 -45.44,117.38 -129.41,115.33l-98.77 -2.42 0 0.36 -51.68 0c-8.36,0 -15.2,-6.84 -15.2,-15.21l0 -61.15c0,-8.36 6.84,-15.21 15.2,-15.21l9.12 0 42.56 0 113.44 0c6.32,0 9.9,-2.86 9.9,-9.78l0 -66.43c0,-7.03 -3.58,-9.78 -9.9,-9.78l-62.14 0c-83.96,0 -129.39,-44.13 -129.39,-117.47l0 -38.41c0,-73.47 45.43,-117.59 129.39,-115.45l144.85 0c8.37,0 15.21,6.84 15.21,15.22l0 63.31c0,8.37 -6.84,15.22 -15.21,15.22z"/>
  <path class="fil0" d="M2391.98 306.28c6.29,0 9.83,2.71 9.83,9.7l0 250.52c0,6.98 -3.54,9.7 -9.83,9.7l-112.34 0c-6.27,0 -9.71,-2.72 -9.71,-9.7l0 -250.52c0,-6.99 3.44,-9.7 9.71,-9.7l112.34 0zm-226.23 251.21c0,72.82 41.67,111.06 125.02,111.06l90.21 0c83.23,0 124.89,-38.24 124.89,-111.06l0 -232.51c0,-72.92 -41.66,-111.04 -124.89,-111.04l-90.21 0c-83.35,0 -125.02,38.12 -125.02,111.04l0 232.51z"/>
  <g id="_2623941020352">
   <path class="fil1" d="M290.38 26.73c228.93,-83.34 482.07,34.71 565.39,263.65 83.32,228.92 -34.71,482.06 -263.64,565.38 -228.95,83.33 -482.07,-34.71 -565.41,-263.64 -83.32,-228.93 34.73,-482.08 263.66,-565.39zm150.86 478.19c115.81,0 209.7,-93.88 209.7,-209.7 0,-115.8 -93.88,-209.68 -209.7,-209.68 -115.81,0 -209.69,93.88 -209.69,209.68 0,115.82 93.88,209.7 209.69,209.7zm-115.63 37.56c-44.1,33.89 -72.64,87.13 -72.64,146.72l0 0c0,36.08 18.49,53.84 60.61,74.35 19.05,9.28 42.71,20.14 74.79,26.21l37.14 7.2 -8.39 -21.88c-7.77,-20.83 -15.47,-41.66 -21.61,-62.49 -7.03,-23.81 -6.56,-21.58 0.48,-45.4 5.66,-19.18 15.52,-38.37 23.02,-57.54 2.85,-7.31 4.44,-16.52 -1.1,-20.75 -3.69,-2.83 -7.39,-5.68 -11.1,-8.52 -6.46,-4.98 -5.71,-12.42 -0.12,-16.74 1.49,-1.13 2.98,-2.28 4.47,-3.42 3.97,-3.06 1.21,-9.26 -2.06,-9.68 -16.93,-2.18 -33.32,-6.02 -49.01,-11.38 -13.62,-4.64 -21.84,-6.41 -34.48,3.32zm231.27 0c44.1,33.89 72.64,87.13 72.64,146.72l0 0c0,36.08 -18.49,53.84 -60.61,74.35 -19.05,9.28 -42.72,20.14 -74.79,26.21l-37.14 7.2 8.39 -21.88c7.77,-20.83 15.47,-41.66 21.61,-62.49 7.03,-23.81 6.56,-21.58 -0.49,-45.4 -5.65,-19.18 -15.51,-38.37 -23.01,-57.54 -2.85,-7.31 -4.44,-16.52 1.09,-20.75 3.7,-2.83 7.4,-5.68 11.1,-8.52 6.47,-4.98 5.72,-12.42 0.13,-16.74 -1.49,-1.13 -2.98,-2.28 -4.47,-3.42 -3.97,-3.06 -1.2,-9.26 2.06,-9.68 16.92,-2.18 33.32,-6.02 49.02,-11.38 13.6,-4.64 21.82,-6.41 34.47,3.32z"/>
   <path class="fil1" d="M522.5 405.1l-38.92 0c-1.8,0 -3.34,-1.5 -3.34,-3.33l0 -148.26c0,-1.83 1.5,-3.34 3.34,-3.34l38.92 0c1.84,0 3.34,1.54 3.34,3.34l0 148.26c0,1.79 -1.57,3.33 -3.34,3.33z"/>
   <path class="fil1" d="M460.71 450.29l-38.94 0c-1.74,0 -3.34,-1.49 -3.34,-3.33l0 -247.53c0,-1.84 1.5,-3.33 3.34,-3.33l38.94 0c1.84,0 3.34,1.6 3.34,3.33l0 247.53c0,1.75 -1.69,3.33 -3.34,3.33z"/>
   <path class="fil1" d="M298.17 374.97l38.95 0c1.84,0 3.34,-1.5 3.34,-3.33l0 -101.94c0,-1.84 -1.5,-3.34 -3.34,-3.34l-38.95 0c-1.83,0 -3.33,1.5 -3.33,3.34l0 101.94c0,1.83 1.5,3.33 3.33,3.33z"/>
   <path class="fil1" d="M359.98 405.1l38.95 0c1.82,0 3.33,-1.5 3.33,-3.33l0 -148.26c0,-1.83 -1.55,-3.34 -3.33,-3.34l-38.95 0c-1.8,0 -3.33,1.54 -3.33,3.34l0 148.26c0,1.79 1.49,3.33 3.33,3.33z"/>
   <path class="fil1" d="M334.3 218.01l26.95 -5.33c1.02,-9.13 8.77,-16.23 18.19,-16.23 3.34,0 6.46,0.87 9.15,2.44l36.01 -32.79 -0.04 -0.11 0 0 -0.06 -0.12 -0.05 -0.09 -0.04 -0.11 -0.04 -0.08 -0.01 -0.03 -0.04 -0.12 -0.05 -0.12 -0.05 -0.11 -0.01 -0.04 -0.03 -0.06 -0.05 -0.12 -0.04 -0.11 -0.04 -0.12 -0.01 -0.02 -0.03 -0.09 -0.04 -0.12 -0.04 -0.1 -0.04 -0.1 0 -0.02 -0.03 -0.12 -0.04 -0.12 -0.05 -0.11 -0.01 -0.05 -0.02 -0.07 -0.03 -0.1 -0.04 -0.13 -0.03 -0.11 -0.02 -0.03 -0.02 -0.09 -0.02 -0.11 -0.04 -0.12 -0.04 -0.11 0 -0.01 -0.02 -0.12 -0.03 -0.12 -0.03 -0.12 -0.03 -0.08 0 -0.04 -0.02 -0.13 -0.03 -0.12 -0.02 -0.12 -0.02 -0.04 0 -0.08 -0.04 -0.12 -0.02 -0.12 -0.02 -0.12 0 0 -0.02 -0.11 -0.02 -0.12 -0.03 -0.13 0 -0.11 0 -0.01 -0.03 -0.13 -0.01 -0.12 -0.02 -0.12 -0.02 -0.06 0 -0.07 -0.01 -0.12 -0.02 -0.13 -0.01 -0.11 0 -0.03 -0.01 -0.11 0 -0.12 -0.02 -0.13 -0.01 -0.11 0 0 -0.01 -0.13 -0.02 -0.14 -0.01 -0.12 0 -0.07 0 -0.06 -0.01 -0.12 0 -0.12 0 -0.14 0 -0.03 0 -0.09 0 -0.13 0 -0.12 0 -0.14c0,-10.11 8.19,-18.3 18.29,-18.3 10.12,0 18.31,8.19 18.31,18.3l0 0.14 0 0.12 0 0.13 0 0.09 0 0.03 -0.01 0.14 0 0.12 0 0.12 -0.02 0.06 0 0.07 -0.01 0.12 0 0.14 0 0.13 0 0 -0.01 0.11 -0.03 0.13 0 0.12 -0.01 0.11 0 0.03 -0.01 0.11 -0.02 0.13 -0.01 0.12 -0.02 0.07 -0.01 0.06 0 0.12 -0.03 0.12 -0.01 0.13 0 0.01 -0.02 0.11 -0.02 0.13 -0.03 0.12 -0.01 0.11 -0.01 0 -0.02 0.12 -0.02 0.12 -0.03 0.12 -0.01 0.08 -0.01 0.04 -0.02 0.12 -0.04 0.12 -0.02 0.13 -0.01 0.04 -0.01 0.08 -0.03 0.12 -0.04 0.12 -0.02 0.12 0 0.01 -0.03 0.11 -0.03 0.12 -0.04 0.11 -0.01 0.09 -0.03 0.03 -0.03 0.11 -0.03 0.13 -0.03 0.1 -0.03 0.07 -0.01 0.05 -0.04 0.11 -0.04 0.12 -0.03 0.12 -0.01 0.02 -0.03 0.1 -0.04 0.1 -0.04 0.12 -0.04 0.09 0 0.02 -0.04 0.12 -0.05 0.11 -0.05 0.12 -0.02 0.06 -0.02 0.04 -0.05 0.11 -0.04 0.12 -0.04 0.12 -0.01 0.03 -0.04 0.08 -0.05 0.11 -0.05 0.09 -0.04 0.12 0 0 -0.06 0.11 36.01 32.79c2.69,-1.57 5.83,-2.44 9.16,-2.44 9.41,0 17.16,7.1 18.19,16.23l26.94 5.33c3.17,-5.81 9.35,-9.76 16.45,-9.76 10.35,0 18.72,8.37 18.72,18.72 0,10.34 -8.37,18.72 -18.72,18.72 -9.7,0 -17.67,-7.35 -18.62,-16.78l-26.92 -5.34c-3.12,5.65 -9.13,9.47 -16.04,9.47 -10.11,0 -18.31,-8.18 -18.31,-18.3 0,-2.73 0.6,-5.32 1.68,-7.64l-36.01 -32.79 -0.05 0.03 -0.08 0.04 -0.13 0.07 -0.12 0.07 -0.05 0.03 -0.08 0.04 -0.14 0.07 -0.12 0.07 -0.06 0.03 -0.08 0.03 -0.13 0.07 -0.12 0.06 -0.07 0.03 -0.07 0.04 -0.13 0.06 -0.13 0.06 -0.07 0.03 -0.07 0.03 -0.13 0.06 -0.14 0.06 -0.06 0.03 -0.07 0.02 -0.13 0.08 -0.15 0.04 -0.07 0.03 -0.05 0.02 -0.15 0.05 -0.13 0.06 -0.08 0.04 -0.07 0.01 -0.13 0.06 -0.14 0.04 -0.09 0.04 -0.06 0 -0.13 0.05 -0.16 0.04 -0.08 0.04 -0.04 0.01 -0.15 0.05 -0.15 0.05 -0.09 0.02 -0.05 0.01 -0.15 0.04 -0.14 0.04 -0.09 0.02 -0.05 0.02 -0.14 0.03 -0.15 0.03 -0.1 0.03 -0.05 0.01 -0.15 0.03 -0.15 0.03 -0.11 0.04 -0.03 0 -0.16 0.04 -0.13 0.01 -0.12 0.03 -0.03 0 -0.16 0.03 -0.15 0.02 -0.12 0.03 -0.02 0 -0.15 0.03 -0.15 0.01 -0.13 0.01 -0.02 0 -0.16 0.03 -0.15 0.02 -0.13 0.02 -0.01 0 -0.16 0 -0.15 0.03 -0.15 0.01 0 0 -0.16 0 -0.16 0.01 -0.15 0.01 0 0 -0.16 0.01 -0.15 0 -0.15 0 -0.01 0 -0.16 0.01 -0.15 0 -0.16 0 -0.15 0 -0.15 0 -0.15 -0.01 -0.02 0 -0.14 0 -0.15 0 -0.16 -0.01 -0.01 0 -0.14 -0.01 -0.16 -0.01 -0.15 0 -0.01 0 -0.15 -0.01 -0.15 -0.03 -0.16 0 -0.01 0 -0.13 -0.02 -0.15 -0.02 -0.16 -0.03 -0.02 0 -0.12 -0.01 -0.16 -0.01 -0.15 -0.03 -0.02 0 -0.14 -0.03 -0.14 -0.02 -0.15 -0.03 -0.03 0 -0.12 -0.03 -0.15 -0.01 -0.15 -0.04 -0.03 0 -0.11 -0.04 -0.15 -0.03 -0.15 -0.03 -0.03 -0.01 -0.11 -0.03 -0.14 -0.03 -0.15 -0.03 -0.05 -0.02 -0.1 -0.02 -0.14 -0.04 -0.15 -0.04 -0.04 -0.01 -0.09 -0.02 -0.15 -0.05 -0.15 -0.05 -0.04 -0.01 -0.09 -0.04 -0.15 -0.04 -0.14 -0.05 -0.05 0 -0.08 -0.04 -0.15 -0.04 -0.14 -0.06 -0.06 -0.01 -0.08 -0.04 -0.13 -0.06 -0.15 -0.05 -0.05 -0.02 -0.08 -0.03 -0.14 -0.04 -0.14 -0.08 -0.06 -0.02 -0.07 -0.03 -0.13 -0.06 -0.14 -0.06 -0.06 -0.03 -0.08 -0.03 -0.12 -0.06 -0.14 -0.06 -0.06 -0.04 -0.07 -0.03 -0.14 -0.06 -0.13 -0.07 -0.06 -0.03 -0.06 -0.03 -0.13 -0.07 -0.14 -0.07 -0.07 -0.04 -0.05 -0.03 -0.13 -0.07 -0.13 -0.07 -0.07 -0.04 -0.05 -0.03 -36.01 32.79c1.08,2.32 1.67,4.91 1.67,7.64 0,10.12 -8.2,18.3 -18.3,18.3 -6.91,0 -12.92,-3.82 -16.04,-9.47l-26.91 5.34c-0.98,9.43 -8.94,16.78 -18.63,16.78 -10.35,0 -18.72,-8.38 -18.72,-18.72 0,-10.35 8.37,-18.72 18.72,-18.72 7.1,0 13.27,3.95 16.44,9.76z"/>
   <path class="fil1" d="M584.31 374.97l-38.94 0c-1.84,0 -3.34,-1.5 -3.34,-3.33l0 -101.94c0,-1.84 1.5,-3.34 3.34,-3.34l38.94 0c1.84,0 3.34,1.5 3.34,3.34l0 101.94c0,1.83 -1.5,3.33 -3.34,3.33z"/>
  </g>
 </g>
</svg>
